<svg xmlns="http://www.w3.org/2000/svg" xmlns:xlink="http://www.w3.org/1999/xlink" width="2560" zoomAndPan="magnify" viewBox="0 0 1920 1079.999946" height="1440" preserveAspectRatio="xMidYMid meet" version="1.0"><path stroke-linecap="butt" transform="matrix(1.145448, 0, 0, 1.145448, 4.150219, 219.274412)" fill="none" stroke-linejoin="miter" d="M 126.562575 438.102082 C 106.769559 438.102082 89.159095 435.660352 73.731182 430.776893 C 58.299859 425.893433 45.443265 419.482187 35.15458 411.539745 C 24.869304 403.597303 16.991657 394.873916 11.525047 385.366175 L 42.578666 347.47503 L 47.462125 347.47503 C 56.055923 360.236138 66.958451 370.391824 80.17653 377.945499 C 93.391199 385.495764 108.853214 389.274307 126.562575 389.274307 C 141.666516 389.274307 153.060118 386.082325 160.743382 379.701771 C 168.423236 373.321218 172.266573 364.533037 172.266573 353.337228 C 172.266573 346.564497 171.028657 340.900093 168.556235 336.344016 C 166.080403 331.78794 161.977888 327.879808 156.24869 324.626442 C 150.519491 321.369665 142.774843 318.569861 133.007924 316.227028 L 96.289901 307.827614 C 70.638097 301.968826 51.530538 292.236009 38.963814 278.629163 C 26.400501 265.022317 20.118844 247.347058 20.118844 225.599976 C 20.118844 209.455914 24.153155 195.262507 32.225186 183.023166 C 40.300627 170.783825 52.052305 161.279494 67.480217 154.506763 C 82.91154 147.737442 101.367744 144.351077 122.852238 144.351077 C 144.855087 144.351077 163.703468 147.249778 179.393969 153.043771 C 195.08447 158.837764 208.333241 167.724842 219.140283 179.701595 L 191.210441 217.984917 L 186.326981 217.984917 C 178.25495 209.520708 169.009797 203.174257 158.594933 198.942152 C 148.176658 194.710048 136.2647 192.592291 122.852238 192.592291 C 107.35612 192.592291 95.573751 195.327301 87.498309 200.797321 C 79.426278 206.263932 75.391967 213.817607 75.391967 223.451527 C 75.391967 232.437502 78.222464 239.598999 83.886868 244.936021 C 89.551272 250.276452 99.348883 254.443762 113.279702 257.43795 L 150.78208 265.250803 C 178.514128 271.109591 198.631117 281.036791 211.133046 295.035814 C 223.631565 309.031427 229.88253 327.293247 229.88253 349.821274 C 229.88253 367.660224 226.042603 383.187034 218.359338 396.401702 C 210.676074 409.619782 199.088088 419.870954 183.595381 427.165452 C 168.099264 434.456539 149.087192 438.102082 126.562575 438.102082 Z M 360.937942 433.999567 L 304.297314 433.999567 L 253.123296 218.571477 L 303.321986 218.571477 L 334.962166 364.273859 L 339.061271 364.273859 L 380.079603 218.571477 L 426.953313 218.571477 L 469.33574 364.273859 L 473.438255 364.273859 L 503.905313 218.571477 L 552.733088 218.571477 L 502.149041 433.999567 L 445.314029 433.999567 L 404.493491 287.321858 L 400.390976 287.321858 Z M 644.335468 438.102082 C 630.534238 438.102082 618.554075 435.561455 608.398389 430.483612 C 598.242703 425.405769 590.42985 417.950991 584.959829 408.122687 C 579.493219 398.290974 576.758209 386.474502 576.758209 372.673273 C 576.758209 359.912165 579.493219 349.20061 584.959829 340.542018 C 590.42985 331.883426 598.894058 324.786723 610.352455 319.255318 C 621.810852 313.720503 636.785203 309.454297 655.272098 306.460109 C 668.162795 304.376454 677.963816 302.098415 684.668342 299.625993 C 691.372869 297.150161 695.898253 294.350357 698.241086 291.226579 C 700.587329 288.102802 701.757041 284.129876 701.757041 279.311211 C 701.757041 272.412301 699.349413 267.136664 694.530748 263.491121 C 689.712083 259.845577 681.704846 258.024511 670.509038 258.024511 C 658.528875 258.024511 647.135273 260.691316 636.328231 266.031747 C 625.52119 271.368769 616.146448 278.400677 608.204006 287.124064 L 604.295874 287.124064 L 581.641669 252.946668 C 592.578299 240.836916 605.925967 231.397379 621.681263 224.624648 C 637.436558 217.855328 654.620743 214.468962 673.240638 214.468962 C 701.757041 214.468962 722.395796 220.522133 735.156903 232.631885 C 747.91801 244.741637 754.298564 261.929232 754.298564 284.19467 L 754.298564 377.751116 C 754.298564 387.385036 758.527258 392.203701 766.991467 392.203701 C 770.248243 392.203701 773.436815 391.61714 776.564002 390.444018 L 779.295602 391.224963 L 783.203734 428.921724 C 780.209546 430.87579 776.042236 432.46837 770.701805 433.706286 C 765.364783 434.944202 759.505996 435.561455 753.125442 435.561455 C 740.234746 435.561455 730.174547 433.089033 722.948254 428.140779 C 715.721962 423.192525 710.545222 415.444467 707.421444 404.900013 L 703.318929 404.507836 C 692.774476 426.902863 673.111049 438.102082 644.335468 438.102082 Z M 661.523063 397.670311 C 674.024992 397.670311 684.016987 393.472309 691.502458 385.072895 C 698.991338 376.676891 702.735779 364.990008 702.735779 350.015657 L 702.735779 328.138986 L 699.02203 327.358042 C 695.768664 329.963463 691.502458 332.146015 686.230231 333.902287 C 680.958004 335.658559 673.373637 337.384139 663.477129 339.079027 C 651.756144 341.029682 643.326038 344.385356 638.1834 349.135816 C 633.040763 353.889686 630.469444 360.628315 630.469444 369.351702 C 630.469444 378.596854 633.204454 385.628763 638.671064 390.444018 C 644.141084 395.262683 651.756144 397.670311 661.523063 397.670311 Z M 818.554252 433.999567 L 818.554252 218.571477 L 871.092365 218.571477 L 871.092365 250.600424 L 875.19488 251.381369 C 880.402312 239.404616 887.239838 230.613025 895.704046 225.016826 C 904.168255 219.417216 914.45353 216.617411 926.563282 216.617411 C 938.802623 216.617411 948.112571 218.701066 954.493124 222.868376 L 945.312766 269.547702 L 941.210251 270.328646 C 937.694296 268.896347 934.311341 267.852814 931.054564 267.201459 C 927.801198 266.553514 923.828272 266.226131 919.139196 266.226131 C 904.035256 266.226131 892.512064 271.53246 884.569622 282.145118 C 876.62718 292.757776 872.657664 309.78168 872.657664 333.220239 L 872.657664 433.999567 Z M 1040.4311 438.102082 C 1026.62646 438.102082 1014.649707 435.561455 1004.490611 430.483612 C 994.334924 425.405769 986.522071 417.950991 981.055461 408.122687 C 975.585441 398.290974 972.850431 386.474502 972.850431 372.673273 C 972.850431 359.912165 975.585441 349.20061 981.055461 340.542018 C 986.522071 331.883426 994.98628 324.786723 1006.444677 319.255318 C 1017.903073 313.720503 1032.877424 309.454297 1051.36773 306.460109 C 1064.258427 304.376454 1074.056038 302.098415 1080.760564 299.625993 C 1087.4685 297.150161 1091.993885 294.350357 1094.336718 291.226579 C 1096.679551 288.102802 1097.852672 284.129876 1097.852672 279.311211 C 1097.852672 272.412301 1095.441635 267.136664 1090.62638 263.491121 C 1085.807715 259.845577 1077.800478 258.024511 1066.601259 258.024511 C 1054.621096 258.024511 1043.227494 260.691316 1032.420453 266.031747 C 1021.613411 271.368769 1012.238669 278.400677 1004.296227 287.124064 L 1000.391506 287.124064 L 977.73389 252.946668 C 988.670521 240.836916 1002.018189 231.397379 1017.773484 224.624648 C 1033.52878 217.855328 1050.716375 214.468962 1069.33627 214.468962 C 1097.852672 214.468962 1118.488017 220.522133 1131.249125 232.631885 C 1144.010232 244.741637 1150.390786 261.929232 1150.390786 284.19467 L 1150.390786 377.751116 C 1150.390786 387.385036 1154.62289 392.203701 1163.087098 392.203701 C 1166.340465 392.203701 1169.532447 391.61714 1172.656224 390.444018 L 1175.391234 391.224963 L 1179.295955 428.921724 C 1176.301767 430.87579 1172.134457 432.46837 1166.797436 433.706286 C 1161.457005 434.944202 1155.598218 435.561455 1149.217664 435.561455 C 1136.326968 435.561455 1126.270178 433.089033 1119.043886 428.140779 C 1111.817593 423.192525 1106.640853 415.444467 1103.517076 404.900013 L 1099.414561 404.507836 C 1088.866698 426.902863 1069.206681 438.102082 1040.4311 438.102082 Z M 1057.618695 397.670311 C 1070.117214 397.670311 1080.109209 393.472309 1087.598089 385.072895 C 1095.08356 376.676891 1098.828 364.990008 1098.828 350.015657 L 1098.828 328.138986 L 1095.117662 327.358042 C 1091.860886 329.963463 1087.598089 332.146015 1082.325863 333.902287 C 1077.050226 335.658559 1069.465859 337.384139 1059.56935 339.079027 C 1047.851776 341.029682 1039.42167 344.385356 1034.279032 349.135816 C 1029.132984 353.889686 1026.561665 360.628315 1026.561665 369.351702 C 1026.561665 378.596854 1029.296675 385.628763 1034.766696 390.444018 C 1040.233306 395.262683 1047.851776 397.670311 1057.618695 397.670311 Z M 1290.039996 438.102082 C 1272.98199 438.102082 1257.908742 433.968875 1244.823662 425.69905 C 1231.738582 417.432635 1221.483999 404.930706 1214.063323 388.200082 C 1206.639237 371.466049 1202.928899 350.861396 1202.928899 326.382714 C 1202.928899 301.774443 1206.738134 281.101585 1214.356603 264.370962 C 1221.971663 247.640339 1232.519526 235.138409 1245.996783 226.871995 C 1259.47404 218.602169 1275.065645 214.468962 1292.775006 214.468962 C 1306.184058 214.468962 1317.806146 216.781103 1327.63786 221.401974 C 1337.466164 226.026256 1345.766681 233.218446 1352.539412 242.985365 L 1356.641927 242.006627 L 1356.641927 132.046941 L 1410.741929 132.046941 L 1410.741929 433.999567 L 1356.641927 433.999567 L 1356.641927 406.069725 L 1352.539412 405.28878 C 1346.551035 415.444467 1338.346005 423.451703 1327.931141 429.313901 C 1317.512866 435.172688 1304.881348 438.102082 1290.039996 438.102082 Z M 1307.616358 392.203701 C 1322.849887 392.203701 1334.894845 386.767783 1343.751231 375.895947 C 1352.604206 365.0207 1357.030694 348.518563 1357.030694 326.382714 C 1357.030694 304.246865 1352.604206 287.710625 1343.751231 276.773994 C 1334.894845 265.837364 1322.849887 260.367344 1307.616358 260.367344 C 1291.731473 260.367344 1279.591029 265.673673 1271.191615 276.28633 C 1262.792201 286.895578 1258.594199 303.595509 1258.594199 326.382714 C 1258.594199 349.040329 1262.792201 365.672056 1271.191615 376.284714 C 1279.591029 386.897372 1291.731473 392.203701 1307.616358 392.203701 Z M 1525.782868 438.102082 C 1511.978228 438.102082 1500.001475 435.561455 1489.842379 430.483612 C 1479.686693 425.405769 1471.873839 417.950991 1466.407229 408.122687 C 1460.937209 398.290974 1458.202199 386.474502 1458.202199 372.673273 C 1458.202199 359.912165 1460.937209 349.20061 1466.407229 340.542018 C 1471.873839 331.883426 1480.338048 324.786723 1491.796445 319.255318 C 1503.254841 313.720503 1518.229193 309.454297 1536.719498 306.460109 C 1549.610195 304.376454 1559.407806 302.098415 1566.112332 299.625993 C 1572.820268 297.150161 1577.342243 294.350357 1579.688486 291.226579 C 1582.031319 288.102802 1583.20444 284.129876 1583.20444 279.311211 C 1583.20444 272.412301 1580.793403 267.136664 1575.978148 263.491121 C 1571.159483 259.845577 1563.152246 258.024511 1551.953027 258.024511 C 1539.972864 258.024511 1528.579262 260.691316 1517.772221 266.031747 C 1506.965179 271.368769 1497.590437 278.400677 1489.647995 287.124064 L 1485.743274 287.124064 L 1463.085658 252.946668 C 1474.022289 240.836916 1487.369957 231.397379 1503.125252 224.624648 C 1518.880548 217.855328 1536.068143 214.468962 1554.688038 214.468962 C 1583.20444 214.468962 1603.839785 220.522133 1616.600893 232.631885 C 1629.362 244.741637 1635.742554 261.929232 1635.742554 284.19467 L 1635.742554 377.751116 C 1635.742554 387.385036 1639.974658 392.203701 1648.438866 392.203701 C 1651.692233 392.203701 1654.884215 391.61714 1658.007992 390.444018 L 1660.743002 391.224963 L 1664.647723 428.921724 C 1661.653535 430.87579 1657.486226 432.46837 1652.149204 433.706286 C 1646.808773 434.944202 1640.949986 435.561455 1634.569432 435.561455 C 1621.678736 435.561455 1611.621946 433.089033 1604.395654 428.140779 C 1597.169362 423.192525 1591.992622 415.444467 1588.868844 404.900013 L 1584.766329 404.507836 C 1574.218466 426.902863 1554.558449 438.102082 1525.782868 438.102082 Z M 1542.967053 397.670311 C 1555.468982 397.670311 1565.460977 393.472309 1572.949857 385.072895 C 1580.435328 376.676891 1584.179768 364.990008 1584.179768 350.015657 L 1584.179768 328.138986 L 1580.46943 327.358042 C 1577.212654 329.963463 1572.949857 332.146015 1567.674221 333.902287 C 1562.401994 335.658559 1554.817627 337.384139 1544.921119 339.079027 C 1533.203544 341.029682 1524.773438 344.385356 1519.62739 349.135816 C 1514.484752 353.889686 1511.913433 360.628315 1511.913433 369.351702 C 1511.913433 378.596854 1514.648444 385.628763 1520.118464 390.444018 C 1525.585074 395.262683 1533.203544 397.670311 1542.967053 397.670311 Z M 1542.967053 397.670311 " stroke="#FFFFFF" stroke-width="15" stroke-opacity="1" stroke-miterlimit="4"/></svg>